<svg version="1.1" viewBox="0.0 0.0 640.0 640.0" fill="none" stroke="none" stroke-linecap="square" stroke-miterlimit="10" xmlns:xlink="http://www.w3.org/1999/xlink" xmlns="http://www.w3.org/2000/svg"><clipPath id="p.0"><path d="m0 0l640.0 0l0 640.0l-640.0 0l0 -640.0z" clip-rule="nonzero"/></clipPath><g clip-path="url(#p.0)"><path fill="#000000" fill-opacity="0.0" d="m0 0l640.0 0l0 640.0l-640.0 0z" fill-rule="evenodd"/><path fill="#434343" d="m1.5485564E-5 0l640.0 0l0 640.0l-640.0 0z" fill-rule="evenodd"/><path fill="#f3f3f3" d="m184.58107 205.625l-20.828125 0l0 93.75l20.828125 0l0 15.625l-20.828125 0l0 109.375l20.828125 0l0 15.625l-41.65625 0l0 -250.0l41.65625 0l0 15.625zm78.13454 234.375l-15.625015 0l-28.65625 -145.82812l0 145.82812l-18.21875 0l0 -250.0l15.625 0l28.796875 151.04688l0 -151.04688l18.07814 0l0 250.0zm75.51953 -250.0l0 15.625l-20.84375 0l0 234.375l-20.828125 0l0 -234.375l-20.828125 0l0 -15.625l62.5 0zm54.676025 20.515625q0 -3.09375 -2.921875 -3.90625q-2.765625 -0.984375 -17.90625 -0.984375l0 218.75q15.140625 0 17.90625 -0.96875q2.921875 -0.984375 2.921875 -4.078125l0 -208.8125zm20.84375 207.51562q0 8.296875 -3.5 12.78125q-3.5 4.46875 -10.34375 6.578125q-3.25 0.984375 -7.96875 1.5625q-4.71875 0.5625 -13.03125 0.890625q-8.296875 0.15625 -14.640625 0.15625l-13.015625 0l0 -250.0q6.671875 0 13.421875 0.09375q6.75 0.078125 13.75 0.234375q14.328125 0.328125 21.15625 2.109375q7.0 1.953125 10.578125 6.28125q3.59375 4.3125 3.59375 12.28125l0 207.03125zm41.660156 -113.453125l15.625 0q1.953125 0 3.0 -0.890625q1.0625 -0.890625 1.546875 -2.359375q0.5 -1.46875 0.578125 -3.328125q0.078125 -1.875 0.078125 -3.828125l0 -78.125q0 -3.90625 -1.0625 -6.015625q-1.046875 -2.125 -3.5 -3.09375q-2.4375 -0.984375 -6.421875 -1.140625q-3.984375 -0.171875 -9.84375 -0.171875l0 98.953125zm20.828125 26.046875q0 -1.953125 -0.078125 -3.8125q-0.078125 -1.875 -0.578125 -3.34375q-0.484375 -1.46875 -1.546875 -2.359375q-1.046875 -0.90625 -3.0 -0.90625l-15.625 0l0 104.171875q3.578125 0 7.3125 -0.15625q3.75 -0.171875 6.765625 -1.0625q3.015625 -0.890625 4.875 -3.0q1.875 -2.125 1.875 -6.203125l0 -83.328125zm20.84375 -36.453125q0 7.8125 -4.078125 12.046875q-4.0625 4.21875 -13.015625 6.34375q8.953125 1.78125 13.015625 6.015625q4.078125 4.234375 4.078125 12.046875l0 83.328125q0 9.765625 -3.59375 15.0625q-3.578125 5.28125 -9.4375 7.734375q-5.859375 2.4375 -13.34375 2.84375q-7.484375 0.40625 -15.296875 0.40625l-20.828125 0l0 -250.0l20.828125 0q9.765625 0 17.5 0.40625q7.734375 0.40625 13.09375 2.859375q5.375 2.4375 8.21875 7.734375q2.859375 5.28125 2.859375 15.046875l0 78.125z" fill-rule="nonzero"/></g></svg>